<svg xmlns="http://www.w3.org/2000/svg" viewBox="0 0 1000 285" fill="#262626">
  <path d="M110.1 16.1c-30.7 1.3-53.5 7.4-73 18.6-40 22.8-59.7 63.5-54.3 111.7 4.7 41.7 27.1 74.5 62.7 91.9 25.2 12.2 55.2 16.7 102.3 15.2 43.5-1.4 68.8-6.7 93.6-19.7 48.3-25.2 69.4-88.7 46.5-139.5-14.4-31.7-43.4-55.6-77.4-63.7-22.4-5.4-66.9-8.7-100.4-7.5zm90.9 25.9c30.9 4.7 52.6 15.9 71.3 36.8 11.3 12.6 18.3 24.4 23.1 38.9 2.3 6.9 2.7 9.7 2.7 19.3 0 13.1-2 21.6-8.2 35.3-9.7 21.3-29.4 41.4-50.6 51.7-38.9 18.8-99.7 20.2-145.3 3.3-31.2-11.6-56.6-38.4-66.3-70.1-3.5-11.4-3.9-14.2-3.9-28.1 0-13.9 0.4-16.5 3.8-27.6 10.1-33.2 34.9-59.8 67.4-72 22.9-8.5 38.5-10.6 80.8-10.5 21.1 0 22.5 0.1 25.2 1z"/>
  <path d="M119.5 55.8c-36.9 5.6-59.7 36.3-57 76.7 2.8 42.4 39.1 71.3 86.1 68.5 35-2.1 59.2-22.4 66.8-56.3 1.3-5.9 1.8-11.5 1.7-21 0-12.7-0.2-13.8-3.5-22.7-4.7-12.8-12.2-23-24-32.4-16.7-13.3-44.2-18.6-70.1-13.5zm41.9 25.9c22.8 5.8 38.8 23.2 42.1 45.8 3 20.4-5.2 41.5-21.3 54.4-9.8 7.8-19.2 11.2-33.7 12.2-21.7 1.4-41.4-7-53.4-22.7-7.9-10.4-11.7-21.8-11.7-35.5 0-31.9 23.3-54.8 55.2-54.2 5.7 0.1 15.3 1.5 22.8 3z"/>
  <path d="M242.7 74.2c-5.6 2.2-11.8 8.9-13.9 15-1.3 3.8-1.7 7.1-1.5 15 0.3 10.3 0.4 10.6 3.6 14.8 7.6 9.8 19.7 13 31.1 8.4 23.1-9.4 21.1-45.5-2.8-52.4-9.1-2.7-11.2-2.8-16.5-0.8z"/>
  <path d="M371.3 49.7l-9.2 0.6-1.1 18.8c-0.6 10.4-1 51.1-1 90.5V241h61.5l-0.3-12.8-0.3-12.7h-20.2c-19.5 0-20.3-0.1-21.1-2-0.5-1.1-0.8-23.2-0.7-49.3l0.2-47.2h30.5v-25.5h-30.5l0.4-31.8 0.3-31.7-8.5 1.7z"/>
  <path d="M413.5 49.7c-0.5 0.2-2.7 0.6-4.7 0.9l-3.8 0.6v190h61.2l-0.4-12.8-0.3-12.7h-20.2c-19.5 0-20.3-0.1-21.1-2-0.5-1.1-0.8-23.2-0.7-49.3l0.2-47.3h30.7l-0.2-12.8-0.3-12.8-30.1-0.3-0.1-19.7c0-10.9-0.1-23.3-0.2-27.8-0.2-7.5-0.3-8.3-2.5-9.2-2.6-1.1-5.2-1.3-7.5-0.8z"/>
  <path d="M483.5 80.5c0.1 29.6 0.3 33.6 1.9 38.4 4.2 12.8 13.7 21.1 25.7 22.6 11.9 1.5 27.3-3.8 34.7-12 2.2-2.4 4.2-4.2 4.4-4 0.2 0.2 0.4 8.1 0.4 17.5v17h55v-110h-55v6.9c0 3.8-0.3 8.7-0.6 10.7-0.6 3.7-0.8 3.9-3.5 3.3-5-1.1-9.5-0.8-12.8 0.6-8.7 3.7-17.6 13.8-18.9 21.3-0.3 1.7-0.8 3.2-1.2 3.2-0.4 0-0.6-16.1-0.6-35.7V50h-29.7l0.2 30.5zm40.8 48.1c-0.6 2.3-0.9 2.5-3.9 1.9-5.9-1.1-7.3-5.4-6.9-20.3l0.3-12.2 2.7-1.1c5.4-2.3 8.2-0.5 9.4 6.2 0.9 5.1 0.7 22.4-0.3 23.9-0.3 0.4-0.9 1.5-1.3 2.6zm75.7-8.1V160h-11.9c-6.6 0-12.2-0.3-12.5-0.6-0.3-0.3-0.6-13.5-0.6-29.4V101h25v19.5z"/>
  <path d="M731 80.5V110h-18.5c-10.2 0-19.7 0.3-21.3 0.6-2.5 0.6-2.7 1-2.7 5.4 0 2.5 0.3 5.8 0.6 7.2 0.6 2.5 0.9 2.6 8.5 3.2 10.3 0.9 23.2 5.9 30.5 11.8 14.8 12 21.5 35.8 15.3 54.3-3.9 11.6-16.3 24.4-28.9 29.8-23 9.9-53.4 7-71.6-6.8-8.7-6.5-17.9-20.6-17.9-27.3 0-3-2.9-5.4-7.3-6-1.9-0.2-3.9-0.9-4.3-1.4-0.4-0.6-0.7-4.7-0.5-9.2 0.3-8.1 0.3-8.1 3.5-8.9 1.8-0.4 11.3-0.7 21.1-0.7h17.8l0.7 6.7c0.8 7.9 4.2 15.2 8.3 18.1 3.7 2.6 11.2 3.4 15.8 1.7 9.5-3.5 13.6-14.2 8.9-23-5.3-9.8-16.1-14.5-32.9-14.5-21.7 0-37.8-10.8-44.8-30-3.6-9.9-3.8-26.5-0.5-36.2 5.6-16.5 20.7-30.8 35.7-33.9 16.6-3.3 36-1.5 48.3 4.6l4.5 2.2V50h31.5v30.5zm-71.9 23.9c-5.3 2.9-6.3 5.1-6.8 16-0.4 8.3-0.2 9.5 1.8 11.9 3.5 4.3 5.8 4.7 26.9 4.7h19v-15.7c0-8.7-0.3-17.3-0.7-19.3-0.6-3.7-1-4-3.9-4-13.3 0-32.5 3-36.3 6.4z"/>
  <path d="M796 81.2v30.9l11.8-0.3 11.7-0.3 0.3-30.3 0.2-30.2h56v190h-56v-96.2l-11.7-0.4-11.8-0.3-0.3 48.4-0.2 48.5h-55V50h55v31.2z"/>
  <path d="M901 142c0 50.9 0.3 93.2 0.6 94 0.5 1.2 2.8 1.5 12.4 1.5h11.7l0.6-30.3 0.6-30.3 2.8 3.8c5.9 7.7 18.3 13.9 30.8 15.4 17.9 2.1 31.8-2.7 43.9-15.1 12.7-13 17.6-28.9 17.6-57.3 0-21.5-0.9-27.6-6-40.4-9.7-24.4-34.9-39.7-60.9-36.9-8.6 0.9-15.3 3.6-22.5 9.2l-5.6 4.3V50h-26v92zm78-28.3c5.7 5.4 7.6 13.9 6.9 29.9-0.8 18.6-4.6 25.3-15.2 26.7-8.9 1.2-14.9-2.1-18.4-10-4.3-10-3.9-34.8 0.8-40.8 2.5-3.2 7-5.5 13.2-6.8 4.8-1 8-0.3 12.7 3z"/>
</svg>